<svg xmlns="http://www.w3.org/2000/svg" width="416" height="64" fill="none" viewBox="0 0 416 64">
  <path fill="#000" d="M224 62h29v-3a1 1 0 0 1 2 0v3h29v-3a1 1 0 0 1 2 0v3h29v-3a1 1 0 0 1 2 0v3h14V39.874a4.01 4.01 0 0 0 2 0V62h13v-3a1 1 0 0 1 2 0v3h29v-3a1 1 0 0 1 2 0v3h19a8 8 0 0 0 8-8v-4.126a4.01 4.01 0 0 0 2 0V54l-.013.515C407.719 59.798 403.35 64 398 64H17l-.515-.013c-4.265-.216-7.824-3.106-9.038-7.026a3.987 3.987 0 0 0 2.026-.243A8.003 8.003 0 0 0 17 62h19v-3a1 1 0 1 1 2 0v3h29v-3a1 1 0 1 1 2 0v3h14V48.874a4.005 4.005 0 0 0 2 0V62h13v-3a1 1 0 1 1 2 0v3h29v-3a1 1 0 0 1 2 0v3h29v-3a1 1 0 0 1 2 0v3h29v-3a1 1 0 0 1 2 0v3h29V11.874a4.01 4.01 0 0 0 2 0V62ZM8 51a2 2 0 1 1 0 4 2 2 0 0 1 0-4Z"/>
  <path fill="#000" d="M68 44a1 1 0 0 1 1 1v.975l11.002-1.086a3.982 3.982 0 0 0 .453 1.966L37.434 51.1A1 1 0 0 1 38 52v2a1 1 0 1 1-2 0v-2a1 1 0 0 1 .398-.798l-24.445 2.411a4.027 4.027 0 0 0-.197-1.99L67 46.172V45a1 1 0 0 1 1-1Zm0 7a1 1 0 0 1 1 1v2a1 1 0 1 1-2 0v-2a1 1 0 0 1 1-1Zm31 0a1 1 0 0 1 1 1v2a1 1 0 1 1-2 0v-2a1 1 0 0 1 1-1Zm31 0a1 1 0 0 1 1 1v2a1 1 0 0 1-2 0v-2a1 1 0 0 1 1-1Zm31 0a1 1 0 0 1 1 1v2a1 1 0 0 1-2 0v-2a1 1 0 0 1 1-1Zm31 0a1 1 0 0 1 1 1v2a1 1 0 0 1-2 0v-2a1 1 0 0 1 1-1Zm62 0a1 1 0 0 1 1 1v2a1 1 0 0 1-2 0v-2a1 1 0 0 1 1-1Zm31 0a1 1 0 0 1 1 1v2a1 1 0 0 1-2 0v-2a1 1 0 0 1 1-1Zm31 0a1 1 0 0 1 1 1v2a1 1 0 0 1-2 0v-2a1 1 0 0 1 1-1Zm31 0a1 1 0 0 1 1 1v2a1 1 0 0 1-2 0v-2a1 1 0 0 1 1-1Zm31 0a1 1 0 0 1 1 1v2a1 1 0 0 1-2 0v-2a1 1 0 0 1 1-1Z"/>
  <path fill="#000" d="M398 0c5.523 0 10 4.477 10 10v32.126a4.01 4.01 0 0 0-2 0V10a8 8 0 0 0-8-8h-19v3a1 1 0 0 1-2 0V2h-29v3a1 1 0 0 1-2 0V2h-29v3a1 1 0 0 1-2 0V2h-29v3a1 1 0 0 1-2 0V2h-29v3a1 1 0 0 1-2 0V2h-29v2.126a4.011 4.011 0 0 0-2 0V2h-29v3a1 1 0 0 1-2 0V2h-29v3a1 1 0 0 1-2 0V2h-29v3a1 1 0 0 1-2 0V2h-29v3a1 1 0 1 1-2 0V2H69v3a1 1 0 1 1-2 0V2H38v3a1 1 0 1 1-2 0V2H17a8 8 0 0 0-8 8v39.126a4.006 4.006 0 0 0-2 0V10C7 4.65 11.202.28 16.485.013L17 0h381Z"/>
  <path fill="#000" d="M37 44a1 1 0 0 1 1 1v2a1 1 0 1 1-2 0v-2a1 1 0 0 1 1-1ZM219.112 7.059a4.001 4.001 0 0 0 .031 2c-9.348.27-18.001 1.504-26.247 3.383a1 1 0 0 1-1.504.35c-12.775 3.049-24.605 7.608-36.58 12.447-17.172 6.94-34.654 14.46-55.551 18.796A1 1 0 0 1 100 45v2a1 1 0 1 1-2 0v-2c0-.319.15-.602.382-.785-3.408.689-6.907 1.29-10.51 1.793a4.005 4.005 0 0 0-.002-2.02c15.248-2.15 28.605-6.134 41.166-10.723A1.004 1.004 0 0 1 129 33v-2a1 1 0 0 1 2 0v1.541c7.891-2.94 15.487-6.094 23.062-9.155C166.075 18.53 178.033 13.917 191 10.83V10a1 1 0 0 1 2 0v.367c8.198-1.836 16.815-3.042 26.112-3.308ZM130 44a1 1 0 0 1 1 1v2a1 1 0 0 1-2 0v-2a1 1 0 0 1 1-1Zm31 0a1 1 0 0 1 1 1v2a1 1 0 0 1-2 0v-2a1 1 0 0 1 1-1Zm31 0a1 1 0 0 1 1 1v2a1 1 0 0 1-2 0v-2a1 1 0 0 1 1-1Zm62 0a1 1 0 0 1 1 1v2a1 1 0 0 1-2 0v-2a1 1 0 0 1 1-1Zm31 0a1 1 0 0 1 1 1v2a1 1 0 0 1-2 0v-2a1 1 0 0 1 1-1Zm31 0a1 1 0 0 1 1 1v2a1 1 0 0 1-2 0v-2a1 1 0 0 1 1-1Zm31 0a1 1 0 0 1 1 1v2a1 1 0 0 1-2 0v-2a1 1 0 0 1 1-1Zm31 0a1 1 0 0 1 1 1v2a1 1 0 0 1-2 0v-2a1 1 0 0 1 1-1Zm29 0a2 2 0 1 1 0 4 2 2 0 0 1 0-4ZM84 43a2 2 0 1 1 0 4 2 2 0 0 1 0-4Z"/>
  <path fill="#000" d="M377.46 40.84A1 1 0 0 1 377 40v-2a1 1 0 0 1 2 0v2a1 1 0 0 1-.717.958l24.997 3.571a3.991 3.991 0 0 0-.247 1.986L348 38.652V40a1 1 0 0 1-2 0v-1.634l-10.144-1.306a3.983 3.983 0 0 0 .028-2.016l41.576 5.797ZM37 37a1 1 0 0 1 1 1v2a1 1 0 1 1-2 0v-2a1 1 0 0 1 1-1Zm31 0a1 1 0 0 1 1 1v2a1 1 0 1 1-2 0v-2a1 1 0 0 1 1-1Zm31 0a1 1 0 0 1 1 1v2a1 1 0 1 1-2 0v-2a1 1 0 0 1 1-1Zm31 0a1 1 0 0 1 1 1v2a1 1 0 0 1-2 0v-2a1 1 0 0 1 1-1Zm31 0a1 1 0 0 1 1 1v2a1 1 0 0 1-2 0v-2a1 1 0 0 1 1-1Zm31 0a1 1 0 0 1 1 1v2a1 1 0 0 1-2 0v-2a1 1 0 0 1 1-1Zm62 0a1 1 0 0 1 1 1v2a1 1 0 0 1-2 0v-2a1 1 0 0 1 1-1Zm31 0a1 1 0 0 1 1 1v2a1 1 0 0 1-2 0v-2a1 1 0 0 1 1-1Zm31 0a1 1 0 0 1 1 1v2a1 1 0 0 1-2 0v-2a1 1 0 0 1 1-1Zm16-3a2 2 0 1 1 0 4 2 2 0 0 1 0-4ZM226.884 7.043c10.505.223 18.897 1.352 26.116 3.044V10a1 1 0 0 1 2 0v.575c8.454 2.164 15.33 5.1 22.282 8.2 10.478 4.672 21.114 9.709 37.718 13.07V31a1 1 0 0 1 2 0v1.236c3.825.722 6.96 1.355 11.472 1.878A3.981 3.981 0 0 0 328 36l.001.07c-19.615-2.296-31.226-6.682-42.001-11.262V26a1 1 0 0 1-2 0v-2l.002-.054c-2.576-1.12-5.063-2.243-7.534-3.345-6.796-3.031-13.485-5.888-21.664-8.01a.997.997 0 0 1-1.793-.447c-7.201-1.725-15.582-2.876-26.15-3.101a3.987 3.987 0 0 0 .023-2ZM37 30a1 1 0 0 1 1 1v2a1 1 0 1 1-2 0v-2a1 1 0 0 1 1-1Zm31 0a1 1 0 0 1 1 1v2a1 1 0 1 1-2 0v-2a1 1 0 0 1 1-1Zm31 0a1 1 0 0 1 1 1v2a1 1 0 1 1-2 0v-2a1 1 0 0 1 1-1Zm62 0a1 1 0 0 1 1 1v2a1 1 0 0 1-2 0v-2a1 1 0 0 1 1-1Zm31 0a1 1 0 0 1 1 1v2a1 1 0 0 1-2 0v-2a1 1 0 0 1 1-1Zm62 0a1 1 0 0 1 1 1v2a1 1 0 0 1-2 0v-2a1 1 0 0 1 1-1Zm31 0a1 1 0 0 1 1 1v2a1 1 0 0 1-2 0v-2a1 1 0 0 1 1-1Zm62 0a1 1 0 0 1 1 1v2a1 1 0 0 1-2 0v-2a1 1 0 0 1 1-1Zm31 0a1 1 0 0 1 1 1v2a1 1 0 0 1-2 0v-2a1 1 0 0 1 1-1ZM37 23a1 1 0 0 1 1 1v2a1 1 0 1 1-2 0v-2a1 1 0 0 1 1-1Zm31 0a1 1 0 0 1 1 1v2a1 1 0 1 1-2 0v-2a1 1 0 0 1 1-1Zm31 0a1 1 0 0 1 1 1v2a1 1 0 1 1-2 0v-2a1 1 0 0 1 1-1Zm31 0a1 1 0 0 1 1 1v2a1 1 0 0 1-2 0v-2a1 1 0 0 1 1-1Zm31 0a1 1 0 0 1 1 1v2a1 1 0 0 1-2 0v-2a1 1 0 0 1 1-1Zm31 0a1 1 0 0 1 1 1v2a1 1 0 0 1-2 0v-2a1 1 0 0 1 1-1Zm62 0a1 1 0 0 1 1 1v2a1 1 0 0 1-2 0v-2a1 1 0 0 1 1-1Zm62 0a1 1 0 0 1 1 1v2a1 1 0 0 1-2 0v-2a1 1 0 0 1 1-1Zm31 0a1 1 0 0 1 1 1v2a1 1 0 0 1-2 0v-2a1 1 0 0 1 1-1Zm31 0a1 1 0 0 1 1 1v2a1 1 0 0 1-2 0v-2a1 1 0 0 1 1-1ZM37 16a1 1 0 0 1 1 1v2a1 1 0 1 1-2 0v-2a1 1 0 0 1 1-1Zm31 0a1 1 0 0 1 1 1v2a1 1 0 1 1-2 0v-2a1 1 0 0 1 1-1Zm31 0a1 1 0 0 1 1 1v2a1 1 0 1 1-2 0v-2a1 1 0 0 1 1-1Zm31 0a1 1 0 0 1 1 1v2a1 1 0 0 1-2 0v-2a1 1 0 0 1 1-1Zm31 0a1 1 0 0 1 1 1v2a1 1 0 0 1-2 0v-2a1 1 0 0 1 1-1Zm31 0a1 1 0 0 1 1 1v2a1 1 0 0 1-2 0v-2a1 1 0 0 1 1-1Z"/>
  <path fill="#000" d="M254 16a1 1 0 0 1 1 1v2a1 1 0 0 1-2 0v-2a1 1 0 0 1 1-1Zm31 0a1 1 0 0 1 1 1v2a1 1 0 0 1-2 0v-2a1 1 0 0 1 1-1Zm31 0a1 1 0 0 1 1 1v2a1 1 0 0 1-2 0v-2a1 1 0 0 1 1-1Zm31 0a1 1 0 0 1 1 1v2a1 1 0 0 1-2 0v-2a1 1 0 0 1 1-1Zm31 0a1 1 0 0 1 1 1v2a1 1 0 0 1-2 0v-2a1 1 0 0 1 1-1ZM37 9a1 1 0 0 1 1 1v2a1 1 0 1 1-2 0v-2a1 1 0 0 1 1-1Zm31 0a1 1 0 0 1 1 1v2a1 1 0 1 1-2 0v-2a1 1 0 0 1 1-1Zm31 0a1 1 0 0 1 1 1v2a1 1 0 1 1-2 0v-2a1 1 0 0 1 1-1Zm31 0a1 1 0 0 1 1 1v2a1 1 0 0 1-2 0v-2a1 1 0 0 1 1-1Zm31 0a1 1 0 0 1 1 1v2a1 1 0 0 1-2 0v-2a1 1 0 0 1 1-1Zm124 0a1 1 0 0 1 1 1v2a1 1 0 0 1-2 0v-2a1 1 0 0 1 1-1Zm31 0a1 1 0 0 1 1 1v2a1 1 0 0 1-2 0v-2a1 1 0 0 1 1-1Zm31 0a1 1 0 0 1 1 1v2a1 1 0 0 1-2 0v-2a1 1 0 0 1 1-1Zm31 0a1 1 0 0 1 1 1v2a1 1 0 0 1-2 0v-2a1 1 0 0 1 1-1ZM223 6a2 2 0 1 1 0 4 2 2 0 0 1 0-4Z"/>
</svg>
